# xmcd CD database file
#
# Track frame offsets:
#	150
#	18257
#	40530
#	68827
#	100570
#	129000
#	153857
#	171182
#	196897
#	222577
#
# Disc length: 3333 seconds
#
# Revision: 0
# Processed by: cddbd v1.5.1PL0 Copyright (c) Steve Scherf et al.
# Submitted via: CDex 1.51
#
DISCID=740d030a
DTITLE=Lost Tribe - Many Lifetimes
DYEAR=1998
DGENRE=Jazz
TTITLE0=Concentrics
TTITLE1=Heroes
TTITLE2=The River
TTITLE3=Vevasis
TTITLE4=Calle Siete
TTITLE5=Kyoto
TTITLE6=Quartet
TTITLE7=Jordan
TTITLE8=Prospicé
TTITLE9=Manticore
EXTD=YEAR: 1998
EXTT0=
EXTT1=
EXTT2=
EXTT3=
EXTT4=
EXTT5=
EXTT6=
EXTT7=
EXTT8=
EXTT9=
PLAYORDER=
